<?xml version="1.0" encoding="UTF-8" standalone="no"?>
<svg
   width="297mm"
   height="297mm"
   viewBox="0 0 1122.5197 1122.5197"
   fill="none"
   version="1.1"
   id="svg9"
   sodipodi:docname="KTlogo_2 copy.svg"
   inkscape:version="1.4.2 (f4327f4, 2025-05-13)"
   inkscape:export-filename="KTlogo_only.png"
   inkscape:export-xdpi="96"
   inkscape:export-ydpi="96"
   xmlns:inkscape="http://www.inkscape.org/namespaces/inkscape"
   xmlns:sodipodi="http://sodipodi.sourceforge.net/DTD/sodipodi-0.dtd"
   xmlns="http://www.w3.org/2000/svg"
   xmlns:svg="http://www.w3.org/2000/svg">
  <sodipodi:namedview
     id="namedview9"
     pagecolor="#ffffff"
     bordercolor="#000000"
     borderopacity="0.25"
     inkscape:showpageshadow="2"
     inkscape:pageopacity="0.0"
     inkscape:pagecheckerboard="0"
     inkscape:deskcolor="#d1d1d1"
     inkscape:zoom="0.40646492"
     inkscape:cx="500.65821"
     inkscape:cy="594.14721"
     inkscape:window-width="1920"
     inkscape:window-height="991"
     inkscape:window-x="-9"
     inkscape:window-y="-9"
     inkscape:window-maximized="1"
     inkscape:current-layer="svg9"
     inkscape:document-units="mm" />
  <g
     id="g9"
     transform="matrix(1.5169185,0,0,1.5169185,75.194406,-4.9606297e-6)">
    <g
       filter="url(#filter0_f_1211_23)"
       id="g1">
      <circle
         cx="321.42999"
         cy="370"
         r="130"
         fill="#d6f7f2"
         id="circle1" />
    </g>
    <path
       d="m 375.43,162 c 0,30.376 -24.625,55 -55,55 -30.376,0 -55,-24.624 -55,-55 0,-30.376 24.624,-55 55,-55 30.375,0 55,24.624 55,55 z m -79.2,0 c 0,13.365 10.834,24.2 24.2,24.2 13.365,0 24.2,-10.835 24.2,-24.2 0,-13.365 -10.835,-24.2 -24.2,-24.2 -13.366,0 -24.2,10.835 -24.2,24.2 z"
       fill="#1fb6b5"
       id="path1" />
    <path
       d="m 585.43,314 c 0,30.376 -24.625,55 -55,55 -30.376,0 -55,-24.624 -55,-55 0,-30.376 24.624,-55 55,-55 30.375,0 55,24.624 55,55 z m -79.2,0 c 0,13.365 10.834,24.2 24.2,24.2 13.365,0 24.2,-10.835 24.2,-24.2 0,-13.365 -10.835,-24.2 -24.2,-24.2 -13.366,0 -24.2,10.835 -24.2,24.2 z"
       fill="#1fb6b5"
       id="path2" />
    <path
       d="m 164.43,474 c 0,30.376 -24.625,55 -55,55 -30.376,0 -55.0003,-24.624 -55.0003,-55 0,-30.376 24.6243,-55 55.0003,-55 30.375,0 55,24.624 55,55 z m -79.2003,0 c 0,13.365 10.8347,24.2 24.2003,24.2 13.365,0 24.2,-10.835 24.2,-24.2 0,-13.365 -10.835,-24.2 -24.2,-24.2 -13.3656,0 -24.2003,10.835 -24.2003,24.2 z"
       fill="#1fb6b5"
       id="path3" />
    <path
       d="m 385,370 c 0,33.137 -26.863,60 -60,60 -33.137,0 -60,-26.863 -60,-60 0,-33.137 26.863,-60 60,-60 33.137,0 60,26.863 60,60 z m -86.4,0 c 0,14.58 11.82,26.4 26.4,26.4 14.58,0 26.4,-11.82 26.4,-26.4 0,-14.58 -11.82,-26.4 -26.4,-26.4 -14.58,0 -26.4,11.82 -26.4,26.4 z"
       fill="#1fb6b5"
       id="path4" />
    <path
       d="m 522.43,578 c 0,30.376 -24.625,55 -55,55 -30.376,0 -55,-24.624 -55,-55 0,-30.376 24.624,-55 55,-55 30.375,0 55,24.624 55,55 z m -79.2,0 c 0,13.365 10.834,24.2 24.2,24.2 13.365,0 24.2,-10.835 24.2,-24.2 0,-13.365 -10.835,-24.2 -24.2,-24.2 -13.366,0 -24.2,10.835 -24.2,24.2 z"
       fill="#1fb6b5"
       id="path5" />
    <rect
       x="308.42999"
       y="208"
       width="30"
       height="114"
       fill="#1fb6b5"
       id="rect5" />
    <rect
       x="477.54501"
       y="311"
       width="30"
       height="114"
       transform="rotate(75,477.545,311)"
       fill="#1fb6b5"
       id="rect6" />
    <rect
       x="449.492"
       y="537.16998"
       width="30"
       height="172"
       transform="rotate(150,449.492,537.17)"
       fill="#1fb6b5"
       id="rect7" />
    <rect
       x="158.205"
       y="473.40799"
       width="30"
       height="154"
       transform="rotate(-120,158.205,473.408)"
       fill="#1fb6b5"
       id="rect8" />
    <circle
       cx="325"
       cy="370"
       r="28"
       fill="#ffffff"
       id="circle8" />
    <path
       d="m 640.859,185 v 370 l -84.488,48.778 C 561.927,590.628 565,576.173 565,561 c 0,-2.764 -0.103,-5.503 -0.304,-8.216 l 36.163,-20.878 V 208.093 L 320.43,46.1875 40,208.093 v 323.813 l 280.43,161.906 72.601,-41.917 c 14.109,9.637 30.576,16.075 48.358,18.269 L 320.43,740 0,555 V 185 L 320.43,0 Z M 485.805,598.332 c -4.124,3.406 -8.822,6.14 -13.926,8.04 z"
       fill="#06535c"
       id="path8" />
  </g>
  <defs
     id="defs9">
    <filter
       id="filter0_f_1211_23"
       x="181.42999"
       y="230"
       width="280"
       height="280"
       filterUnits="userSpaceOnUse"
       color-interpolation-filters="sRGB">
      <feFlood
         flood-opacity="0"
         result="BackgroundImageFix"
         id="feFlood9" />
      <feBlend
         mode="normal"
         in="SourceGraphic"
         in2="BackgroundImageFix"
         result="shape"
         id="feBlend9" />
      <feGaussianBlur
         stdDeviation="5"
         result="effect1_foregroundBlur_1211_23"
         id="feGaussianBlur9" />
    </filter>
  </defs>
</svg>
